<?xml version="1.0" standalone="no"?>
<!DOCTYPE svg PUBLIC "-//W3C//DTD SVG 20010904//EN"
 "http://www.w3.org/TR/2001/REC-SVG-20010904/DTD/svg10.dtd">
<svg version="1.0"
    xmlns="http://www.w3.org/2000/svg" width="812.000000pt" height="673.000000pt" viewBox="0 0 812.000000 673.000000" preserveAspectRatio="xMidYMid meet">

    <g transform="translate(0.000000,673.000000) scale(0.100000,-0.100000)" fill="#000000" stroke="none">
        <path d="M1202 6579 c-241 -28 -450 -129 -629 -302 -162 -157 -260 -337 -310
-567 -17 -81 -18 -196 -18 -2345 0 -2149 1 -2264 18 -2345 48 -223 136 -388
290 -547 157 -162 337 -260 567 -310 81 -17 218 -18 2995 -18 2777 0 2914 1
2995 18 230 50 410 148 567 310 154 159 242 324 290 547 17 81 18 196 18 2345
0 2149 -1 2264 -18 2345 -50 230 -148 410 -310 567 -155 150 -313 235 -537
289 -71 17 -214 18 -2960 20 -1587 1 -2918 -2 -2958 -7z m1130 -589 c157 -15
185 -39 245 -212 22 -62 384 -1122 804 -2355 419 -1234 766 -2240 770 -2235 3
4 356 1062 784 2352 428 1290 784 2357 792 2372 22 46 80 68 211 79 126 12
362 5 427 -12 79 -21 103 -66 84 -157 -18 -87 -1848 -5292 -1875 -5334 -53
-82 -140 -102 -459 -102 -323 -1 -426 23 -476 109 -20 35 -1842 5207 -1864
5293 -26 100 -15 142 48 174 66 33 314 47 509 28z"/>
    </g>
</svg>
